<svg viewBox="0 0 24 24" xmlns="http://www.w3.org/2000/svg"><path d="m22.86723 3.374a.99906.99906 0 0 0 -.86622-.50195l-4.97064-.00391-.00738-.001-3.64356.001a1.00172 1.00172 0 0 0 -.81787.42481l-.55859.7959-.56446-.79785a.9983.9983 0 0 0 -.81591-.42286l-3.646-.001h-.00049l-.00146.00018-.00147-.00018h-.00537l-4.97314.02734a.99989.99989 0 0 0 -.85742 1.50586l10.01953 17.10552a1.00068 1.00068 0 0 0 .86279.49414h.001a1.00062 1.00062 0 0 0 .86328-.49609l9.98045-17.12791a1.00212 1.00212 0 0 0 .00293-1.002zm-12.7627 1.49416 1.085 1.53321a.99856.99856 0 0 0 .81641.42285h.00146a1.00252 1.00252 0 0 0 .8169-.42481l1.07519-1.53125 1.36267-.001-3.244 5.45373-3.27496-5.4537zm1.9126 14.14942-8.27783-14.13281 2.66992-.01465 4.75342 7.918a1.00082 1.00082 0 0 0 .85742.48535h.00194l.001-.00012.001.00012h.002a1 1 0 0 0 .85742-.48926l4.708-7.916 2.66949.00293z"/></svg>