<svg viewBox="0 0 24 24" xmlns="http://www.w3.org/2000/svg">
    <symbol id="vue-alternate">
        <path d="m22.86723 3.374a.99906.99906 0 0 0 -.86622-.50195l-4.97064-.00391-.00738-.001-3.64356.001a1.00172 1.00172 0 0 0 -.81787.42481l-.55859.7959-.56446-.79785a.9983.9983 0 0 0 -.81591-.42286l-3.646-.001h-.00049l-.00146.00018-.00147-.00018h-.00537l-4.97314.02734a.99989.99989 0 0 0 -.85742 1.50586l10.01953 17.10552a1.00068 1.00068 0 0 0 .86279.49414h.001a1.00062 1.00062 0 0 0 .86328-.49609l9.98045-17.12791a1.00212 1.00212 0 0 0 .00293-1.002zm-12.7627 1.49416 1.085 1.53321a.99856.99856 0 0 0 .81641.42285h.00146a1.00252 1.00252 0 0 0 .8169-.42481l1.07519-1.53125 1.36267-.001-3.244 5.45373-3.27496-5.4537zm1.9126 14.14942-8.27783-14.13281 2.66992-.01465 4.75342 7.918a1.00082 1.00082 0 0 0 .85742.48535h.00194l.001-.00012.001.00012h.002a1 1 0 0 0 .85742-.48926l4.708-7.916 2.66949.00293z"/>
    </symbol>
    <symbol id="code">
        <path d="m9.71 6.29a1 1 0 0 0 -1.42 0l-5 5a1 1 0 0 0 0 1.42l5 5a1 1 0 0 0 1.42 0 1 1 0 0 0 0-1.42l-4.3-4.29 4.3-4.29a1 1 0 0 0 0-1.42zm11 5-5-5a1 1 0 0 0 -1.42 1.42l4.3 4.29-4.3 4.29a1 1 0 0 0 0 1.42 1 1 0 0 0 1.42 0l5-5a1 1 0 0 0 0-1.42z"/>
    </symbol>
    <symbol id="cog">
        <path d="M21.32,9.55l-1.89-.63.89-1.78A1,1,0,0,0,20.13,6L18,3.87a1,1,0,0,0-1.15-.19l-1.78.89-.63-1.89A1,1,0,0,0,13.5,2h-3a1,1,0,0,0-.95.68L8.92,4.57,7.14,3.68A1,1,0,0,0,6,3.87L3.87,6a1,1,0,0,0-.19,1.15l.89,1.78-1.89.63A1,1,0,0,0,2,10.5v3a1,1,0,0,0,.68.95l1.89.63-.89,1.78A1,1,0,0,0,3.87,18L6,20.13a1,1,0,0,0,1.15.19l1.78-.89.63,1.89a1,1,0,0,0,.95.68h3a1,1,0,0,0,.95-.68l.63-1.89,1.78.89A1,1,0,0,0,18,20.13L20.13,18a1,1,0,0,0,.19-1.15l-.89-1.78,1.89-.63A1,1,0,0,0,22,13.5v-3A1,1,0,0,0,21.32,9.55ZM20,12.78l-1.2.4A2,2,0,0,0,17.64,16l.57,1.14-1.1,1.1L16,17.64a2,2,0,0,0-2.79,1.16l-.4,1.2H11.22l-.4-1.2A2,2,0,0,0,8,17.64l-1.14.57-1.1-1.1L6.36,16A2,2,0,0,0,5.2,13.18L4,12.78V11.22l1.2-.4A2,2,0,0,0,6.36,8L5.79,6.89l1.1-1.1L8,6.36A2,2,0,0,0,10.82,5.2l.4-1.2h1.56l.4,1.2A2,2,0,0,0,16,6.36l1.14-.57,1.1,1.1L17.64,8a2,2,0,0,0,1.16,2.79l1.2.4ZM12,8a4,4,0,1,0,4,4A4,4,0,0,0,12,8Zm0,6a2,2,0,1,1,2-2A2,2,0,0,1,12,14Z"/>
    </symbol>
    <symbol id="dasboard">
        <path d="M19.088,4.95453c-.00732-.00781-.00952-.01819-.01715-.02582s-.01819-.00995-.02606-.01733a9.97886,9.97886,0,0,0-14.08948,0c-.00787.00738-.01837.00964-.02606.01733s-.00983.018-.01715.02582a10,10,0,1,0,14.1759,0ZM12,20a7.9847,7.9847,0,0,1-6.235-3H9.78027a2.9636,2.9636,0,0,0,4.43946,0h4.01532A7.9847,7.9847,0,0,1,12,20Zm-1-5a1,1,0,1,1,1,1A1.001,1.001,0,0,1,11,15Zm8.41022.00208L19.3999,15H15a2.99507,2.99507,0,0,0-2-2.81573V9a1,1,0,0,0-2,0v3.18427A2.99507,2.99507,0,0,0,9,15H4.6001l-.01032.00208A7.93083,7.93083,0,0,1,4.06946,13H5a1,1,0,0,0,0-2H4.06946A7.95128,7.95128,0,0,1,5.68854,7.10211l.65472.65473A.99989.99989,0,1,0,7.75732,6.34277l-.65466-.65466A7.95231,7.95231,0,0,1,11,4.06946V5a1,1,0,0,0,2,0V4.06946a7.95231,7.95231,0,0,1,3.89734,1.61865l-.65466.65466a.99989.99989,0,1,0,1.41406,1.41407l.65472-.65473A7.95128,7.95128,0,0,1,19.93054,11H19a1,1,0,0,0,0,2h.93054A7.93083,7.93083,0,0,1,19.41022,15.00208Z"/>
    </symbol>
    <symbol id="apps">
        <path d="M10,13H3a1,1,0,0,0-1,1v7a1,1,0,0,0,1,1h7a1,1,0,0,0,1-1V14A1,1,0,0,0,10,13ZM9,20H4V15H9ZM21,2H14a1,1,0,0,0-1,1v7a1,1,0,0,0,1,1h7a1,1,0,0,0,1-1V3A1,1,0,0,0,21,2ZM20,9H15V4h5Zm1,4H14a1,1,0,0,0-1,1v7a1,1,0,0,0,1,1h7a1,1,0,0,0,1-1V14A1,1,0,0,0,21,13Zm-1,7H15V15h5ZM10,2H3A1,1,0,0,0,2,3v7a1,1,0,0,0,1,1h7a1,1,0,0,0,1-1V3A1,1,0,0,0,10,2ZM9,9H4V4H9Z"/>
    </symbol>
    <symbol id="archive-alt">
        <path d="M10,13h4a1,1,0,0,0,0-2H10a1,1,0,0,0,0,2ZM19,3H5A3,3,0,0,0,4,8.82V18a3,3,0,0,0,3,3H17a3,3,0,0,0,3-3V8.82A3,3,0,0,0,19,3ZM18,18a1,1,0,0,1-1,1H7a1,1,0,0,1-1-1V9H18ZM19,7H5A1,1,0,0,1,5,5H19a1,1,0,0,1,0,2Z"/>
    </symbol>
</svg>
