<svg viewBox="0 0 24 24" xmlns="http://www.w3.org/2000/svg">
    <symbol id="vue-alternate">
        <path d="m22.86723 3.374a.99906.99906 0 0 0 -.86622-.50195l-4.97064-.00391-.00738-.001-3.64356.001a1.00172 1.00172 0 0 0 -.81787.42481l-.55859.7959-.56446-.79785a.9983.9983 0 0 0 -.81591-.42286l-3.646-.001h-.00049l-.00146.00018-.00147-.00018h-.00537l-4.97314.02734a.99989.99989 0 0 0 -.85742 1.50586l10.01953 17.10552a1.00068 1.00068 0 0 0 .86279.49414h.001a1.00062 1.00062 0 0 0 .86328-.49609l9.98045-17.12791a1.00212 1.00212 0 0 0 .00293-1.002zm-12.7627 1.49416 1.085 1.53321a.99856.99856 0 0 0 .81641.42285h.00146a1.00252 1.00252 0 0 0 .8169-.42481l1.07519-1.53125 1.36267-.001-3.244 5.45373-3.27496-5.4537zm1.9126 14.14942-8.27783-14.13281 2.66992-.01465 4.75342 7.918a1.00082 1.00082 0 0 0 .85742.48535h.00194l.001-.00012.001.00012h.002a1 1 0 0 0 .85742-.48926l4.708-7.916 2.66949.00293z"/>
    </symbol>
    <symbol id="code">
        <path d="m9.71 6.29a1 1 0 0 0 -1.42 0l-5 5a1 1 0 0 0 0 1.42l5 5a1 1 0 0 0 1.42 0 1 1 0 0 0 0-1.42l-4.3-4.29 4.3-4.29a1 1 0 0 0 0-1.42zm11 5-5-5a1 1 0 0 0 -1.42 1.42l4.3 4.29-4.3 4.29a1 1 0 0 0 0 1.42 1 1 0 0 0 1.42 0l5-5a1 1 0 0 0 0-1.42z"/>
    </symbol>
    <symbol id="cog">
        <path d="M21.32,9.55l-1.89-.63.89-1.78A1,1,0,0,0,20.13,6L18,3.87a1,1,0,0,0-1.15-.19l-1.78.89-.63-1.89A1,1,0,0,0,13.5,2h-3a1,1,0,0,0-.95.68L8.92,4.57,7.14,3.68A1,1,0,0,0,6,3.87L3.87,6a1,1,0,0,0-.19,1.15l.89,1.78-1.89.63A1,1,0,0,0,2,10.5v3a1,1,0,0,0,.68.95l1.89.63-.89,1.78A1,1,0,0,0,3.87,18L6,20.13a1,1,0,0,0,1.15.19l1.78-.89.63,1.89a1,1,0,0,0,.95.68h3a1,1,0,0,0,.95-.68l.63-1.89,1.78.89A1,1,0,0,0,18,20.13L20.13,18a1,1,0,0,0,.19-1.15l-.89-1.78,1.89-.63A1,1,0,0,0,22,13.5v-3A1,1,0,0,0,21.32,9.55ZM20,12.78l-1.2.4A2,2,0,0,0,17.64,16l.57,1.14-1.1,1.1L16,17.64a2,2,0,0,0-2.79,1.16l-.4,1.2H11.22l-.4-1.2A2,2,0,0,0,8,17.64l-1.14.57-1.1-1.1L6.36,16A2,2,0,0,0,5.2,13.18L4,12.78V11.22l1.2-.4A2,2,0,0,0,6.36,8L5.79,6.89l1.1-1.1L8,6.36A2,2,0,0,0,10.82,5.2l.4-1.2h1.56l.4,1.2A2,2,0,0,0,16,6.36l1.14-.57,1.1,1.1L17.64,8a2,2,0,0,0,1.16,2.79l1.2.4ZM12,8a4,4,0,1,0,4,4A4,4,0,0,0,12,8Zm0,6a2,2,0,1,1,2-2A2,2,0,0,1,12,14Z"/>
    </symbol>
    <symbol id="dashboard">
        <path d="M19.088,4.95453c-.00732-.00781-.00952-.01819-.01715-.02582s-.01819-.00995-.02606-.01733a9.97886,9.97886,0,0,0-14.08948,0c-.00787.00738-.01837.00964-.02606.01733s-.00983.018-.01715.02582a10,10,0,1,0,14.1759,0ZM12,20a7.9847,7.9847,0,0,1-6.235-3H9.78027a2.9636,2.9636,0,0,0,4.43946,0h4.01532A7.9847,7.9847,0,0,1,12,20Zm-1-5a1,1,0,1,1,1,1A1.001,1.001,0,0,1,11,15Zm8.41022.00208L19.3999,15H15a2.99507,2.99507,0,0,0-2-2.81573V9a1,1,0,0,0-2,0v3.18427A2.99507,2.99507,0,0,0,9,15H4.6001l-.01032.00208A7.93083,7.93083,0,0,1,4.06946,13H5a1,1,0,0,0,0-2H4.06946A7.95128,7.95128,0,0,1,5.68854,7.10211l.65472.65473A.99989.99989,0,1,0,7.75732,6.34277l-.65466-.65466A7.95231,7.95231,0,0,1,11,4.06946V5a1,1,0,0,0,2,0V4.06946a7.95231,7.95231,0,0,1,3.89734,1.61865l-.65466.65466a.99989.99989,0,1,0,1.41406,1.41407l.65472-.65473A7.95128,7.95128,0,0,1,19.93054,11H19a1,1,0,0,0,0,2h.93054A7.93083,7.93083,0,0,1,19.41022,15.00208Z"/>
    </symbol>
    <symbol id="apps">
        <path d="M10,13H3a1,1,0,0,0-1,1v7a1,1,0,0,0,1,1h7a1,1,0,0,0,1-1V14A1,1,0,0,0,10,13ZM9,20H4V15H9ZM21,2H14a1,1,0,0,0-1,1v7a1,1,0,0,0,1,1h7a1,1,0,0,0,1-1V3A1,1,0,0,0,21,2ZM20,9H15V4h5Zm1,4H14a1,1,0,0,0-1,1v7a1,1,0,0,0,1,1h7a1,1,0,0,0,1-1V14A1,1,0,0,0,21,13Zm-1,7H15V15h5ZM10,2H3A1,1,0,0,0,2,3v7a1,1,0,0,0,1,1h7a1,1,0,0,0,1-1V3A1,1,0,0,0,10,2ZM9,9H4V4H9Z"/>
    </symbol>
    <symbol id="archive-alt">
        <path d="M10,13h4a1,1,0,0,0,0-2H10a1,1,0,0,0,0,2ZM19,3H5A3,3,0,0,0,4,8.82V18a3,3,0,0,0,3,3H17a3,3,0,0,0,3-3V8.82A3,3,0,0,0,19,3ZM18,18a1,1,0,0,1-1,1H7a1,1,0,0,1-1-1V9H18ZM19,7H5A1,1,0,0,1,5,5H19a1,1,0,0,1,0,2Z"/>
    </symbol>
    <symbol id="spinner" viewBox="0 0 50 50">
        <circle cx="25" cy="25" r="20" fill="none" stroke-width="4"></circle>
    </symbol>
    <symbol id="ellipsis-v">
        <path d="M12,7a2,2,0,1,0-2-2A2,2,0,0,0,12,7Zm0,10a2,2,0,1,0,2,2A2,2,0,0,0,12,17Zm0-7a2,2,0,1,0,2,2A2,2,0,0,0,12,10Z"/>
    </symbol>
    <symbol id="times" viewBox="0 0 24 24">
        <path d="M13.41,12l4.3-4.29a1,1,0,1,0-1.42-1.42L12,10.59,7.71,6.29A1,1,0,0,0,6.29,7.71L10.59,12l-4.3,4.29a1,1,0,0,0,0,1.42,1,1,0,0,0,1.42,0L12,13.41l4.29,4.3a1,1,0,0,0,1.42,0,1,1,0,0,0,0-1.42Z"/>
    </symbol>
    <symbol id="multiply" viewBox="0 0 24 24">
        <path d="M13.41,12l6.3-6.29a1,1,0,1,0-1.42-1.42L12,10.59,5.71,4.29A1,1,0,0,0,4.29,5.71L10.59,12l-6.3,6.29a1,1,0,0,0,0,1.42,1,1,0,0,0,1.42,0L12,13.41l6.29,6.3a1,1,0,0,0,1.42,0,1,1,0,0,0,0-1.42Z"/>
    </symbol>
    <symbol id="star" viewBox="0 0 24 24">
        <path d="M22,9.67A1,1,0,0,0,21.14,9l-5.69-.83L12.9,3a1,1,0,0,0-1.8,0L8.55,8.16,2.86,9a1,1,0,0,0-.81.68,1,1,0,0,0,.25,1l4.13,4-1,5.68a1,1,0,0,0,.4,1,1,1,0,0,0,1.05.07L12,18.76l5.1,2.68a.93.93,0,0,0,.46.12,1,1,0,0,0,.59-.19,1,1,0,0,0,.4-1l-1-5.68,4.13-4A1,1,0,0,0,22,9.67Zm-6.15,4a1,1,0,0,0-.29.89l.72,4.19-3.76-2a1,1,0,0,0-.94,0l-3.76,2,.72-4.19a1,1,0,0,0-.29-.89l-3-3,4.21-.61a1,1,0,0,0,.76-.55L12,5.7l1.88,3.82a1,1,0,0,0,.76.55l4.21.61Z"/>
    </symbol>
    <symbol id="user-plus" viewBox="0 0 24 24">
        <path d="M21,10.5H20v-1a1,1,0,0,0-2,0v1H17a1,1,0,0,0,0,2h1v1a1,1,0,0,0,2,0v-1h1a1,1,0,0,0,0-2Zm-7.7,1.72A4.92,4.92,0,0,0,15,8.5a5,5,0,0,0-10,0,4.92,4.92,0,0,0,1.7,3.72A8,8,0,0,0,2,19.5a1,1,0,0,0,2,0,6,6,0,0,1,12,0,1,1,0,0,0,2,0A8,8,0,0,0,13.3,12.22ZM10,11.5a3,3,0,1,1,3-3A3,3,0,0,1,10,11.5Z"/>
    </symbol>
    <symbol id="star-mono">
        <path class="uim-primary" d="M17.56248,21.55957a1.00275,1.00275,0,0,1-.46531-.11475L12,18.76514,6.90283,21.44482a1.00019,1.00019,0,0,1-1.45117-1.0542l.97363-5.67578-4.12353-4.019a1.00033,1.00033,0,0,1,.5542-1.706l5.69873-.82813L11.103,2.99805a1.04173,1.04173,0,0,1,1.79394,0l2.54834,5.16357,5.69873.82813a1.00033,1.00033,0,0,1,.5542,1.706l-4.12353,4.019.97363,5.67578a1,1,0,0,1-.98586,1.169Z"/>
    </symbol>
    <symbol id="hdd" viewBox="0 0 24 24">
        <path d="M22,14.86a0,0,0,0,1,0,0v-.05a2.61,2.61,0,0,0-.1-.57L20.26,4.51a3,3,0,0,0-3-2.51H6.69A3,3,0,0,0,3.74,4.51L2.12,14.22a2.61,2.61,0,0,0-.1.57v.05a0,0,0,0,1,0,0C2,14.91,2,15,2,15v4a3,3,0,0,0,3,3H19a3,3,0,0,0,3-3V15C22,15,22,14.91,22,14.86ZM5.71,4.83a1,1,0,0,1,1-.83H17.31a1,1,0,0,1,1,.83l1.2,7.22A2.63,2.63,0,0,0,19,12H5a2.63,2.63,0,0,0-.49.05ZM20,19a1,1,0,0,1-1,1H5a1,1,0,0,1-1-1V15.08l.08-.46A1,1,0,0,1,5,14H19a1,1,0,0,1,.92.62l.08.46Zm-3-3a1,1,0,1,0,1,1A1,1,0,0,0,17,16Z"/>
    </symbol>
    <symbol id="user" viewBox="0 0 24 24">
        <path d="M15.71,12.71a6,6,0,1,0-7.42,0,10,10,0,0,0-6.22,8.18,1,1,0,0,0,2,.22,8,8,0,0,1,15.9,0,1,1,0,0,0,1,.89h.11a1,1,0,0,0,.88-1.1A10,10,0,0,0,15.71,12.71ZM12,12a4,4,0,1,1,4-4A4,4,0,0,1,12,12Z"/>
    </symbol>
    <symbol id="check-circle" viewBox="0 0 24 24">
        <path d="M14.72,8.79l-4.29,4.3L8.78,11.44a1,1,0,1,0-1.41,1.41l2.35,2.36a1,1,0,0,0,.71.29,1,1,0,0,0,.7-.29l5-5a1,1,0,0,0,0-1.42A1,1,0,0,0,14.72,8.79ZM12,2A10,10,0,1,0,22,12,10,10,0,0,0,12,2Zm0,18a8,8,0,1,1,8-8A8,8,0,0,1,12,20Z"/>
    </symbol>
    <symbol id="map-marker" viewBox="0 0 24 24">
        <path d="M12,2a8,8,0,0,0-8,8c0,5.4,7.05,11.5,7.35,11.76a1,1,0,0,0,1.3,0C13,21.5,20,15.4,20,10A8,8,0,0,0,12,2Zm0,17.65c-2.13-2-6-6.31-6-9.65a6,6,0,0,1,12,0C18,13.34,14.13,17.66,12,19.65ZM12,6a4,4,0,1,0,4,4A4,4,0,0,0,12,6Zm0,6a2,2,0,1,1,2-2A2,2,0,0,1,12,12Z"/>
    </symbol>
    <symbol id="linkedin" viewBox="0 0 24 24">
        <path d="M20.47,2H3.53A1.45,1.45,0,0,0,2.06,3.43V20.57A1.45,1.45,0,0,0,3.53,22H20.47a1.45,1.45,0,0,0,1.47-1.43V3.43A1.45,1.45,0,0,0,20.47,2ZM8.09,18.74h-3v-9h3ZM6.59,8.48h0a1.56,1.56,0,1,1,0-3.12,1.57,1.57,0,1,1,0,3.12ZM18.91,18.74h-3V13.91c0-1.21-.43-2-1.52-2A1.65,1.65,0,0,0,12.85,13a2,2,0,0,0-.1.73v5h-3s0-8.18,0-9h3V11A3,3,0,0,1,15.46,9.5c2,0,3.45,1.29,3.45,4.06Z"/>
    </symbol>
    <symbol id="twitter" viewBox="0 0 24 24">
        <path d="M22,5.8a8.49,8.49,0,0,1-2.36.64,4.13,4.13,0,0,0,1.81-2.27,8.21,8.21,0,0,1-2.61,1,4.1,4.1,0,0,0-7,3.74A11.64,11.64,0,0,1,3.39,4.62a4.16,4.16,0,0,0-.55,2.07A4.09,4.09,0,0,0,4.66,10.1,4.05,4.05,0,0,1,2.8,9.59v.05a4.1,4.1,0,0,0,3.3,4A3.93,3.93,0,0,1,5,13.81a4.9,4.9,0,0,1-.77-.07,4.11,4.11,0,0,0,3.83,2.84A8.22,8.22,0,0,1,3,18.34a7.93,7.93,0,0,1-1-.06,11.57,11.57,0,0,0,6.29,1.85A11.59,11.59,0,0,0,20,8.45c0-.17,0-.35,0-.53A8.43,8.43,0,0,0,22,5.8Z"/>
    </symbol>
    <symbol id="skype" viewBox="0 0 24 24">
        <path d="M21.43451,14.15552a9.586,9.586,0,0,0,.21155-2.02631,9.47653,9.47653,0,0,0-9.54029-9.42254,9.11414,9.11414,0,0,0-1.62494.14178A5.53558,5.53558,0,0,0,2.00061,7.466a5.42884,5.42884,0,0,0,.75354,2.7558,10.0197,10.0197,0,0,0-.18866,1.88452,9.33889,9.33889,0,0,0,9.54028,9.25788,8.56663,8.56663,0,0,0,1.74268-.16584A5.57942,5.57942,0,0,0,16.46368,22a5.433,5.433,0,0,0,4.97083-7.84448ZM16.43964,15.9931a3.63146,3.63146,0,0,1-1.62488,1.22473,6.33963,6.33963,0,0,1-2.52033.44709,6.21683,6.21683,0,0,1-2.89764-.61176,3.733,3.733,0,0,1-1.31964-1.17779,2.574,2.574,0,0,1-.494-1.41339.88041.88041,0,0,1,.30646-.68384,1.09008,1.09008,0,0,1,.77643-.28247.94433.94433,0,0,1,.637.2127,1.793,1.793,0,0,1,.44708.65863,3.39792,3.39792,0,0,0,.49518.87256,1.78964,1.78964,0,0,0,.72955.56488,3.01435,3.01435,0,0,0,1.24872.23554,2.9217,2.9217,0,0,0,1.71985-.44708,1.33217,1.33217,0,0,0,.65979-1.13092,1.135,1.135,0,0,0-.35333-.87134,2.18491,2.18491,0,0,0-.91944-.51923c-.37616-.11774-.89538-.23553-1.53112-.37616a13.9908,13.9908,0,0,1-2.14295-.6358,3.34814,3.34814,0,0,1-1.36651-1.01312,2.47429,2.47429,0,0,1-.49512-1.57807,2.62945,2.62945,0,0,1,.54205-1.60205,3.41154,3.41154,0,0,1,1.53113-1.084,6.652,6.652,0,0,1,2.37964-.37623,6.403,6.403,0,0,1,1.88452.25843,4.07215,4.07215,0,0,1,1.31842.65979,2.91587,2.91587,0,0,1,.77765.87134,1.80281,1.80281,0,0,1,.23553.87139.96189.96189,0,0,1-.30645.70667.9912.9912,0,0,1-.7536.30646.9735.9735,0,0,1-.63575-.18866,2.38218,2.38218,0,0,1-.47113-.61176,2.93711,2.93711,0,0,0-.77758-.96631A2.37614,2.37614,0,0,0,12.0589,7.96a2.7028,2.7028,0,0,0-1.5083.37738,1.07558,1.07558,0,0,0-.56488.89539.95783.95783,0,0,0,.18866.56488,1.41851,1.41851,0,0,0,.54205.4002,2.69264,2.69264,0,0,0,.68262.25959c.23559.07092.613.16467,1.15381.28247.65979.14178,1.27276.30646,1.81475.47107a5.43,5.43,0,0,1,1.38941.6358,2.85691,2.85691,0,0,1,.89532.94226,2.8284,2.8284,0,0,1,.32935,1.3905A2.89029,2.89029,0,0,1,16.43964,15.9931Z"/>
    </symbol>
    <symbol id="phone-alt" viewBox="0 0 24 24">
        <path d="M19.44,13c-.22,0-.45-.07-.67-.12a9.44,9.44,0,0,1-1.31-.39,2,2,0,0,0-2.48,1l-.22.45a12.18,12.18,0,0,1-2.66-2,12.18,12.18,0,0,1-2-2.66L10.52,9a2,2,0,0,0,1-2.48,10.33,10.33,0,0,1-.39-1.31c-.05-.22-.09-.45-.12-.68a3,3,0,0,0-3-2.49h-3a3,3,0,0,0-3,3.41A19,19,0,0,0,18.53,21.91l.38,0a3,3,0,0,0,2-.76,3,3,0,0,0,1-2.25v-3A3,3,0,0,0,19.44,13Zm.5,6a1,1,0,0,1-.34.75,1.06,1.06,0,0,1-.82.25A17,17,0,0,1,4.07,5.22a1.09,1.09,0,0,1,.25-.82,1,1,0,0,1,.75-.34h3a1,1,0,0,1,1,.79q.06.41.15.81a11.12,11.12,0,0,0,.46,1.55l-1.4.65a1,1,0,0,0-.49,1.33,14.49,14.49,0,0,0,7,7,1,1,0,0,0,.76,0,1,1,0,0,0,.57-.52l.62-1.4a13.69,13.69,0,0,0,1.58.46q.4.09.81.15a1,1,0,0,1,.79,1Z"/>
    </symbol>
    <symbol id="envelop" viewBox="0 0 24 24">
        <path d="M19,4H5A3,3,0,0,0,2,7V17a3,3,0,0,0,3,3H19a3,3,0,0,0,3-3V7A3,3,0,0,0,19,4Zm-.41,2-5.88,5.88a1,1,0,0,1-1.42,0L5.41,6ZM20,17a1,1,0,0,1-1,1H5a1,1,0,0,1-1-1V7.41l5.88,5.88a3,3,0,0,0,4.24,0L20,7.41Z"/>
    </symbol>
    <symbol id="link" viewBox="0 0 24 24">
        <path d="M10,17.55,8.23,19.27a2.47,2.47,0,0,1-3.5-3.5l4.54-4.55a2.46,2.46,0,0,1,3.39-.09l.12.1a1,1,0,0,0,1.4-1.43A2.75,2.75,0,0,0,14,9.59a4.46,4.46,0,0,0-6.09.22L3.31,14.36a4.48,4.48,0,0,0,6.33,6.33L11.37,19A1,1,0,0,0,10,17.55ZM20.69,3.31a4.49,4.49,0,0,0-6.33,0L12.63,5A1,1,0,0,0,14,6.45l1.73-1.72a2.47,2.47,0,0,1,3.5,3.5l-4.54,4.55a2.46,2.46,0,0,1-3.39.09l-.12-.1a1,1,0,0,0-1.4,1.43,2.75,2.75,0,0,0,.23.21,4.47,4.47,0,0,0,6.09-.22l4.55-4.55A4.49,4.49,0,0,0,20.69,3.31Z"/>
    </symbol>
    <symbol id="table" viewBox="0 0 24 24">
        <path d="M21,2H3A1,1,0,0,0,2,3V21a1,1,0,0,0,1,1H21a1,1,0,0,0,1-1V3A1,1,0,0,0,21,2ZM8,20H4V16H8Zm0-6H4V10H8ZM8,8H4V4H8Zm6,12H10V16h4Zm0-6H10V10h4Zm0-6H10V4h4Zm6,12H16V16h4Zm0-6H16V10h4Zm0-6H16V4h4Z"/>
    </symbol>
    <symbol id="angle-down" viewBox="0 0 24 24">
        <path d="M17,9.17a1,1,0,0,0-1.41,0L12,12.71,8.46,9.17a1,1,0,0,0-1.41,0,1,1,0,0,0,0,1.42l4.24,4.24a1,1,0,0,0,1.42,0L17,10.59A1,1,0,0,0,17,9.17Z"/>
    </symbol>
    <symbol id="export" viewBox="0 0 24 24">
        <path d="M8.71,7.71,11,5.41V15a1,1,0,0,0,2,0V5.41l2.29,2.3a1,1,0,0,0,1.42,0,1,1,0,0,0,0-1.42l-4-4a1,1,0,0,0-.33-.21,1,1,0,0,0-.76,0,1,1,0,0,0-.33.21l-4,4A1,1,0,1,0,8.71,7.71ZM21,14a1,1,0,0,0-1,1v4a1,1,0,0,1-1,1H5a1,1,0,0,1-1-1V15a1,1,0,0,0-2,0v4a3,3,0,0,0,3,3H19a3,3,0,0,0,3-3V15A1,1,0,0,0,21,14Z"/>
    </symbol>
    <symbol id="eye" viewBox="0 0 24 24">
        <path d="M21.92,11.6C19.9,6.91,16.1,4,12,4S4.1,6.91,2.08,11.6a1,1,0,0,0,0,.8C4.1,17.09,7.9,20,12,20s7.9-2.91,9.92-7.6A1,1,0,0,0,21.92,11.6ZM12,18c-3.17,0-6.17-2.29-7.9-6C5.83,8.29,8.83,6,12,6s6.17,2.29,7.9,6C18.17,15.71,15.17,18,12,18ZM12,8a4,4,0,1,0,4,4A4,4,0,0,0,12,8Zm0,6a2,2,0,1,1,2-2A2,2,0,0,1,12,14Z"/>
    </symbol>
    <symbol id="edit" viewBox="0 0 24 24">
        <path d="M21,12a1,1,0,0,0-1,1v6a1,1,0,0,1-1,1H5a1,1,0,0,1-1-1V5A1,1,0,0,1,5,4h6a1,1,0,0,0,0-2H5A3,3,0,0,0,2,5V19a3,3,0,0,0,3,3H19a3,3,0,0,0,3-3V13A1,1,0,0,0,21,12ZM6,12.76V17a1,1,0,0,0,1,1h4.24a1,1,0,0,0,.71-.29l6.92-6.93h0L21.71,8a1,1,0,0,0,0-1.42L17.47,2.29a1,1,0,0,0-1.42,0L13.23,5.12h0L6.29,12.05A1,1,0,0,0,6,12.76ZM16.76,4.41l2.83,2.83L18.17,8.66,15.34,5.83ZM8,13.17l5.93-5.93,2.83,2.83L10.83,16H8Z"/>
    </symbol>
    <symbol id="trash-alt" viewBox="0 0 24 24">
        <path d="M10,18a1,1,0,0,0,1-1V11a1,1,0,0,0-2,0v6A1,1,0,0,0,10,18ZM20,6H16V5a3,3,0,0,0-3-3H11A3,3,0,0,0,8,5V6H4A1,1,0,0,0,4,8H5V19a3,3,0,0,0,3,3h8a3,3,0,0,0,3-3V8h1a1,1,0,0,0,0-2ZM10,5a1,1,0,0,1,1-1h2a1,1,0,0,1,1,1V6H10Zm7,14a1,1,0,0,1-1,1H8a1,1,0,0,1-1-1V8H17Zm-3-1a1,1,0,0,0,1-1V11a1,1,0,0,0-2,0v6A1,1,0,0,0,14,18Z"/>
    </symbol>
    <symbol id="scenery" viewBox="0 0 24 24">
        <path d="M19,2H5A3,3,0,0,0,2,5V19a3,3,0,0,0,3,3H19a2.81,2.81,0,0,0,.49-.05l.3-.07.07,0h0l.05,0,.37-.14.13-.07c.1-.06.21-.11.31-.18a3.79,3.79,0,0,0,.38-.32l.07-.09a2.69,2.69,0,0,0,.27-.32l.09-.13a2.31,2.31,0,0,0,.18-.35,1,1,0,0,0,.07-.15c.05-.12.08-.25.12-.38l0-.15A2.6,2.6,0,0,0,22,19V5A3,3,0,0,0,19,2ZM5,20a1,1,0,0,1-1-1V14.69l3.29-3.3h0a1,1,0,0,1,1.42,0L17.31,20Zm15-1a1,1,0,0,1-.07.36,1,1,0,0,1-.08.14.94.94,0,0,1-.09.12l-5.35-5.35.88-.88a1,1,0,0,1,1.42,0h0L20,16.69Zm0-5.14L18.12,12a3.08,3.08,0,0,0-4.24,0l-.88.88L10.12,10a3.08,3.08,0,0,0-4.24,0L4,11.86V5A1,1,0,0,1,5,4H19a1,1,0,0,1,1,1ZM13.5,6A1.5,1.5,0,1,0,15,7.5,1.5,1.5,0,0,0,13.5,6Z"/>
    </symbol>
    <symbol id="align-justify" viewBox="0 0 24 24">
        <path d="M3,5H21a1,1,0,0,0,0-2H3A1,1,0,0,0,3,5ZM15,19H3a1,1,0,0,0,0,2H15a1,1,0,0,0,0-2Zm6-8H3a1,1,0,0,0,0,2H21a1,1,0,0,0,0-2Zm0-4H3A1,1,0,0,0,3,9H21a1,1,0,0,0,0-2Zm0,8H3a1,1,0,0,0,0,2H21a1,1,0,0,0,0-2Z"/>
    </symbol>
    <symbol id="analytics" viewBox="0 0 24 24">
        <path d="M5,12a1,1,0,0,0-1,1v8a1,1,0,0,0,2,0V13A1,1,0,0,0,5,12ZM10,2A1,1,0,0,0,9,3V21a1,1,0,0,0,2,0V3A1,1,0,0,0,10,2ZM20,16a1,1,0,0,0-1,1v4a1,1,0,0,0,2,0V17A1,1,0,0,0,20,16ZM15,8a1,1,0,0,0-1,1V21a1,1,0,0,0,2,0V9A1,1,0,0,0,15,8Z"/>
    </symbol>
</svg>
