<svg viewBox="0 0 24 24" xmlns="http://www.w3.org/2000/svg">
    <symbol id="vue-alternate">
        <path d="m22.86723 3.374a.99906.99906 0 0 0 -.86622-.50195l-4.97064-.00391-.00738-.001-3.64356.001a1.00172 1.00172 0 0 0 -.81787.42481l-.55859.7959-.56446-.79785a.9983.9983 0 0 0 -.81591-.42286l-3.646-.001h-.00049l-.00146.00018-.00147-.00018h-.00537l-4.97314.02734a.99989.99989 0 0 0 -.85742 1.50586l10.01953 17.10552a1.00068 1.00068 0 0 0 .86279.49414h.001a1.00062 1.00062 0 0 0 .86328-.49609l9.98045-17.12791a1.00212 1.00212 0 0 0 .00293-1.002zm-12.7627 1.49416 1.085 1.53321a.99856.99856 0 0 0 .81641.42285h.00146a1.00252 1.00252 0 0 0 .8169-.42481l1.07519-1.53125 1.36267-.001-3.244 5.45373-3.27496-5.4537zm1.9126 14.14942-8.27783-14.13281 2.66992-.01465 4.75342 7.918a1.00082 1.00082 0 0 0 .85742.48535h.00194l.001-.00012.001.00012h.002a1 1 0 0 0 .85742-.48926l4.708-7.916 2.66949.00293z"/>
    </symbol>
    <symbol id="code">
        <path d="m9.71 6.29a1 1 0 0 0 -1.42 0l-5 5a1 1 0 0 0 0 1.42l5 5a1 1 0 0 0 1.42 0 1 1 0 0 0 0-1.42l-4.3-4.29 4.3-4.29a1 1 0 0 0 0-1.42zm11 5-5-5a1 1 0 0 0 -1.42 1.42l4.3 4.29-4.3 4.29a1 1 0 0 0 0 1.42 1 1 0 0 0 1.42 0l5-5a1 1 0 0 0 0-1.42z"/>
    </symbol>
    <symbol id="cog">
        <path d="M21.32,9.55l-1.89-.63.89-1.78A1,1,0,0,0,20.13,6L18,3.87a1,1,0,0,0-1.15-.19l-1.78.89-.63-1.89A1,1,0,0,0,13.5,2h-3a1,1,0,0,0-.95.68L8.92,4.57,7.14,3.68A1,1,0,0,0,6,3.87L3.87,6a1,1,0,0,0-.19,1.15l.89,1.78-1.89.63A1,1,0,0,0,2,10.5v3a1,1,0,0,0,.68.95l1.89.63-.89,1.78A1,1,0,0,0,3.87,18L6,20.13a1,1,0,0,0,1.15.19l1.78-.89.63,1.89a1,1,0,0,0,.95.68h3a1,1,0,0,0,.95-.68l.63-1.89,1.78.89A1,1,0,0,0,18,20.13L20.13,18a1,1,0,0,0,.19-1.15l-.89-1.78,1.89-.63A1,1,0,0,0,22,13.5v-3A1,1,0,0,0,21.32,9.55ZM20,12.78l-1.2.4A2,2,0,0,0,17.64,16l.57,1.14-1.1,1.1L16,17.64a2,2,0,0,0-2.79,1.16l-.4,1.2H11.22l-.4-1.2A2,2,0,0,0,8,17.64l-1.14.57-1.1-1.1L6.36,16A2,2,0,0,0,5.2,13.18L4,12.78V11.22l1.2-.4A2,2,0,0,0,6.36,8L5.79,6.89l1.1-1.1L8,6.36A2,2,0,0,0,10.82,5.2l.4-1.2h1.56l.4,1.2A2,2,0,0,0,16,6.36l1.14-.57,1.1,1.1L17.64,8a2,2,0,0,0,1.16,2.79l1.2.4ZM12,8a4,4,0,1,0,4,4A4,4,0,0,0,12,8Zm0,6a2,2,0,1,1,2-2A2,2,0,0,1,12,14Z"/>
    </symbol>
    <symbol id="dashboard">
        <path d="M19.088,4.95453c-.00732-.00781-.00952-.01819-.01715-.02582s-.01819-.00995-.02606-.01733a9.97886,9.97886,0,0,0-14.08948,0c-.00787.00738-.01837.00964-.02606.01733s-.00983.018-.01715.02582a10,10,0,1,0,14.1759,0ZM12,20a7.9847,7.9847,0,0,1-6.235-3H9.78027a2.9636,2.9636,0,0,0,4.43946,0h4.01532A7.9847,7.9847,0,0,1,12,20Zm-1-5a1,1,0,1,1,1,1A1.001,1.001,0,0,1,11,15Zm8.41022.00208L19.3999,15H15a2.99507,2.99507,0,0,0-2-2.81573V9a1,1,0,0,0-2,0v3.18427A2.99507,2.99507,0,0,0,9,15H4.6001l-.01032.00208A7.93083,7.93083,0,0,1,4.06946,13H5a1,1,0,0,0,0-2H4.06946A7.95128,7.95128,0,0,1,5.68854,7.10211l.65472.65473A.99989.99989,0,1,0,7.75732,6.34277l-.65466-.65466A7.95231,7.95231,0,0,1,11,4.06946V5a1,1,0,0,0,2,0V4.06946a7.95231,7.95231,0,0,1,3.89734,1.61865l-.65466.65466a.99989.99989,0,1,0,1.41406,1.41407l.65472-.65473A7.95128,7.95128,0,0,1,19.93054,11H19a1,1,0,0,0,0,2h.93054A7.93083,7.93083,0,0,1,19.41022,15.00208Z"/>
    </symbol>
    <symbol id="apps">
        <path d="M10,13H3a1,1,0,0,0-1,1v7a1,1,0,0,0,1,1h7a1,1,0,0,0,1-1V14A1,1,0,0,0,10,13ZM9,20H4V15H9ZM21,2H14a1,1,0,0,0-1,1v7a1,1,0,0,0,1,1h7a1,1,0,0,0,1-1V3A1,1,0,0,0,21,2ZM20,9H15V4h5Zm1,4H14a1,1,0,0,0-1,1v7a1,1,0,0,0,1,1h7a1,1,0,0,0,1-1V14A1,1,0,0,0,21,13Zm-1,7H15V15h5ZM10,2H3A1,1,0,0,0,2,3v7a1,1,0,0,0,1,1h7a1,1,0,0,0,1-1V3A1,1,0,0,0,10,2ZM9,9H4V4H9Z"/>
    </symbol>
    <symbol id="archive-alt">
        <path d="M10,13h4a1,1,0,0,0,0-2H10a1,1,0,0,0,0,2ZM19,3H5A3,3,0,0,0,4,8.82V18a3,3,0,0,0,3,3H17a3,3,0,0,0,3-3V8.82A3,3,0,0,0,19,3ZM18,18a1,1,0,0,1-1,1H7a1,1,0,0,1-1-1V9H18ZM19,7H5A1,1,0,0,1,5,5H19a1,1,0,0,1,0,2Z"/>
    </symbol>
    <symbol id="spinner" viewBox="0 0 50 50">
        <circle cx="25" cy="25" r="20" fill="none" stroke-width="4"></circle>
    </symbol>
    <symbol id="ellipsis-v">
        <path d="M12,7a2,2,0,1,0-2-2A2,2,0,0,0,12,7Zm0,10a2,2,0,1,0,2,2A2,2,0,0,0,12,17Zm0-7a2,2,0,1,0,2,2A2,2,0,0,0,12,10Z"/>
    </symbol>
    <symbol id="times" viewBox="0 0 24 24">
        <path d="M13.41,12l4.3-4.29a1,1,0,1,0-1.42-1.42L12,10.59,7.71,6.29A1,1,0,0,0,6.29,7.71L10.59,12l-4.3,4.29a1,1,0,0,0,0,1.42,1,1,0,0,0,1.42,0L12,13.41l4.29,4.3a1,1,0,0,0,1.42,0,1,1,0,0,0,0-1.42Z"/>
    </symbol>
    <symbol id="multiply" viewBox="0 0 24 24">
        <path d="M13.41,12l6.3-6.29a1,1,0,1,0-1.42-1.42L12,10.59,5.71,4.29A1,1,0,0,0,4.29,5.71L10.59,12l-6.3,6.29a1,1,0,0,0,0,1.42,1,1,0,0,0,1.42,0L12,13.41l6.29,6.3a1,1,0,0,0,1.42,0,1,1,0,0,0,0-1.42Z"/>
    </symbol>
    <symbol id="star" viewBox="0 0 24 24">
        <path d="M22,9.67A1,1,0,0,0,21.14,9l-5.69-.83L12.9,3a1,1,0,0,0-1.8,0L8.55,8.16,2.86,9a1,1,0,0,0-.81.68,1,1,0,0,0,.25,1l4.13,4-1,5.68a1,1,0,0,0,.4,1,1,1,0,0,0,1.05.07L12,18.76l5.1,2.68a.93.93,0,0,0,.46.12,1,1,0,0,0,.59-.19,1,1,0,0,0,.4-1l-1-5.68,4.13-4A1,1,0,0,0,22,9.67Zm-6.15,4a1,1,0,0,0-.29.89l.72,4.19-3.76-2a1,1,0,0,0-.94,0l-3.76,2,.72-4.19a1,1,0,0,0-.29-.89l-3-3,4.21-.61a1,1,0,0,0,.76-.55L12,5.7l1.88,3.82a1,1,0,0,0,.76.55l4.21.61Z"/>
    </symbol>
    <symbol id="user-plus" viewBox="0 0 24 24">
        <path d="M21,10.5H20v-1a1,1,0,0,0-2,0v1H17a1,1,0,0,0,0,2h1v1a1,1,0,0,0,2,0v-1h1a1,1,0,0,0,0-2Zm-7.7,1.72A4.92,4.92,0,0,0,15,8.5a5,5,0,0,0-10,0,4.92,4.92,0,0,0,1.7,3.72A8,8,0,0,0,2,19.5a1,1,0,0,0,2,0,6,6,0,0,1,12,0,1,1,0,0,0,2,0A8,8,0,0,0,13.3,12.22ZM10,11.5a3,3,0,1,1,3-3A3,3,0,0,1,10,11.5Z"/>
    </symbol>
    <symbol id="star-mono">
        <path class="uim-primary" d="M17.56248,21.55957a1.00275,1.00275,0,0,1-.46531-.11475L12,18.76514,6.90283,21.44482a1.00019,1.00019,0,0,1-1.45117-1.0542l.97363-5.67578-4.12353-4.019a1.00033,1.00033,0,0,1,.5542-1.706l5.69873-.82813L11.103,2.99805a1.04173,1.04173,0,0,1,1.79394,0l2.54834,5.16357,5.69873.82813a1.00033,1.00033,0,0,1,.5542,1.706l-4.12353,4.019.97363,5.67578a1,1,0,0,1-.98586,1.169Z"/>
    </symbol>
    <symbol id="hdd" viewBox="0 0 24 24">
        <path d="M22,14.86a0,0,0,0,1,0,0v-.05a2.61,2.61,0,0,0-.1-.57L20.26,4.51a3,3,0,0,0-3-2.51H6.69A3,3,0,0,0,3.74,4.51L2.12,14.22a2.61,2.61,0,0,0-.1.57v.05a0,0,0,0,1,0,0C2,14.91,2,15,2,15v4a3,3,0,0,0,3,3H19a3,3,0,0,0,3-3V15C22,15,22,14.91,22,14.86ZM5.71,4.83a1,1,0,0,1,1-.83H17.31a1,1,0,0,1,1,.83l1.2,7.22A2.63,2.63,0,0,0,19,12H5a2.63,2.63,0,0,0-.49.05ZM20,19a1,1,0,0,1-1,1H5a1,1,0,0,1-1-1V15.08l.08-.46A1,1,0,0,1,5,14H19a1,1,0,0,1,.92.62l.08.46Zm-3-3a1,1,0,1,0,1,1A1,1,0,0,0,17,16Z"/>
    </symbol>
</svg>
