<svg
    xmlns="http://www.w3.org/2000/svg"
    width="68px"
    height="68px"
    viewBox="0 0 574 574"
    fill="#7a869a"
>
    <path d="M565.915,502.085c-3.672-1.837-8.567-2.143-13.464-1.225c-6.426-59.364-26.928-115.668-70.38-157.896c-0.612-0.612-1.53-0.918-2.142-1.225c4.59-7.344,8.262-14.994,10.71-23.256c19.277-67.932-32.742-133.417-101.898-136.782c7.344-43.452,34.272-68.85,73.746-85.374c13.464,22.032,39.78,32.13,64.872,23.868c26.928-8.874,36.108-40.086,24.786-64.566c-12.24-26.01-40.698-35.496-67.626-31.518c-21.114,3.06-37.944,21.42-29.988,42.228c-0.306,0-0.306,0-0.611,0c-53.856,1.53-95.778,62.73-95.778,113.22c-0.307,0-0.307-0.306-0.307-0.306c-41.615-28.458-100.979-17.136-144.737,1.53c-2.448-47.736-69.462-70.38-108.63-76.5c11.628-24.786,0.612-49.266-23.868-60.282c-26.01-11.322-54.774-2.448-70.38,20.196c-20.196,29.376-8.568,65.484,18.36,85.374c23.562,17.136,58.752,11.934,67.014-18.054c12.852,7.344,28.152,11.016,41.004,18.972c17.442,10.71,29.376,25.398,36.414,44.37c-55.998,25.092-54.468,108.937-27.234,153.918c3.366,5.508,7.344,10.71,11.628,15.3c-29.376,11.017-40.392,46.513-43.452,75.582c-1.53,13.464,5.508,44.37-8.568,46.513c-9.18,1.224-30.294,4.283-33.66,15.911c-6.12,22.645,42.534,34.272,55.386,18.666c32.742-38.861,7.344-100.062,44.676-138.006c1.224-1.224,1.224-2.447,0.918-3.672c16.524,13.464,37.026,22.95,58.446,29.683c-14.994,31.518-20.808,65.178-17.136,99.756c-32.742-3.979-52.02,37.638-12.24,41.616c12.852,1.224,37.638,0,37.638-18.666c0-39.78-1.53-78.643,14.076-116.893c0-0.306,0-0.306,0-0.612c28.458,5.814,57.528,7.038,82.314,4.284c14.994-1.836,31.824-5.508,48.96-11.016c27.233,41.31,26.01,83.231,20.808,130.662c-0.306,3.366,4.284,4.59,6.12,2.448c11.934,9.485,32.742,9.791,40.086-5.202c3.061-5.814,2.448-12.853-2.448-17.748c-3.365-3.366-9.18-5.509-14.688-5.814c1.224-34.578,7.038-91.188-24.786-114.138c18.972-8.568,37.026-19.891,51.714-33.66c44.982,44.676,62.73,101.286,67.014,163.71c0.307,4.284,4.896,5.508,7.345,3.366c14.382,3.06,36.414,3.06,37.638-14.994C574.483,510.041,570.811,504.533,565.915,502.085z M166.585,377.237c-22.032,17.748-26.01,45.9-29.376,72.216c-2.142,14.688-3.672,29.376-7.038,43.759c-0.612,2.142-1.224,4.283-1.836,6.426c-15.912,22.338-30.294,23.256-42.228,2.448c8.262-5.509,23.562-6.732,33.048-7.956c2.448-0.307,5.508-2.143,5.202-5.202c-4.284-40.393-2.448-98.838,37.944-120.258c2.448,2.447,5.202,4.896,7.956,7.344C168.727,376.319,167.503,376.319,166.585,377.237z M229.621,488.009c-0.612,13.464-3.672,26.928-0.612,40.086c3.366,13.77-14.076,11.934-20.808,12.24c-14.076,0.306-13.464-27.54,10.098-20.809c3.978,1.224,6.732-2.448,6.12-6.12c-5.814-34.884-0.612-70.38,11.628-103.428c3.06,0.918,6.12,1.53,9.18,2.448C234.211,436.907,231.151,461.387,229.621,488.009z M430.051,511.876c-2.143,0.307-3.979,0.919-5.814,1.837c-2.754,1.529-2.448,6.426,0.918,7.038c5.814,1.224,12.546-1.53,17.748,2.447c2.754,2.448,2.754,5.814,1.224,8.874c-2.142,4.284-6.426,6.732-10.71,7.956c-7.037,1.836-13.464-0.918-19.584-3.366c16.524-41.31,3.061-97.002-24.174-130.968c4.284-1.53,8.263-3.06,12.546-4.896C429.745,432.929,425.46,471.791,430.051,511.876z M456.061,348.779c-31.212,35.496-85.068,52.326-130.356,57.528c-46.206,5.202-96.083-9.181-135.251-32.742c-58.446-35.19-72.216-131.581-13.158-174.114c1.53-1.224,1.836-2.754,0.918-3.978c0-0.306,0.306-0.306,0.306-0.612c-1.53-19.278-14.382-34.884-28.764-46.818c-13.158-11.016-36.108-26.01-53.856-24.174c-2.448,0.306-3.672,2.142-3.672,3.978c-0.306,0.306-0.612,0.306-0.612,0.612c-13.77,23.256-35.19,25.398-57.222,11.016C10.219,123.562,5.323,93.88,19.399,69.707c22.338-38.25,96.084-16.524,75.888,29.682c-1.53,3.672,1.224,7.038,4.284,7.65c0.306,0.612,0.612,1.224,1.53,1.53c43.758,9.486,88.128,30.294,104.652,74.358c0.612,2.142,2.754,2.754,4.59,2.448c0.612,1.53,2.142,2.754,3.978,2.142c42.534-13.158,97.614-25.398,137.395,1.53c2.754,1.836,5.508,0.918,7.038-1.224c1.529,1.836,4.896,1.53,5.201-1.53c4.284-55.692,38.862-95.166,90.882-111.996c1.837-0.612,2.755-2.142,2.755-3.672c1.529,0,3.06-1.53,2.754-3.06c-7.038-46.512,63.647-38.862,80.478-9.486c11.628,20.502,2.754,44.982-19.278,52.326c-21.726,7.344-41.922-5.508-52.632-23.868c-2.447-3.978-6.731-2.754-8.567,0c-40.698,7.956-77.725,53.856-75.582,95.166c-6.427,1.836-5.814,12.546,2.142,12.852C466.159,199.451,509.611,287.579,456.061,348.779z M538.375,525.953c1.53-60.281-23.256-129.132-73.134-165.546c3.672-3.672,7.038-7.649,10.099-11.628c0.306,0.307,0.306,0.612,0.611,0.918c43.759,42.229,59.059,96.084,71.298,153.307c-1.529,0.611-2.754,1.529-3.672,2.754c-1.836,2.447-0.918,7.344,2.754,6.731c5.202-0.612,9.486-4.284,14.994-2.448c2.754,0.918,3.979,3.366,3.979,6.12C564.997,526.259,548.779,526.871,538.375,525.953z"
    />
    <g id="eye-right">
        <animateTransform
            attributeName="transform"
            type="rotate"
            from="0 513 70"
            to="360 513 70"
            dur="0.6s"
            repeatCount="indefinite"
        />
        <path d="M487.885,47.98c0,0,0-0.306,0.306-0.306c0.306-0.612-0.306-1.224-0.918-0.918c-16.524,8.262-17.748,30.294-7.65,44.37c9.486,13.158,31.824,18.054,44.677,7.344C547.861,77.969,514.813,32.068,487.885,47.98z M518.485,89.291c-6.426,10.404-24.479,3.672-30.906-2.448c-8.874-8.568-6.731-24.174-1.836-35.19c0.307,1.836,1.53,3.366,3.672,3.366c11.017,0,20.196-1.53,27.234,8.874C521.851,71.236,523.381,81.641,518.485,89.291z"
        />
        <path d="M512.67,69.095c-1.224-3.978-4.283-3.978-7.037-2.754c-1.225-0.918-3.061-0.918-3.673,0.612c-1.836,3.672-5.813,7.956-5.813,12.24c0,6.12,6.12,8.568,11.322,10.404c3.06,0.918,5.813-1.53,5.813-4.59c0-2.754,0-5.508,0-8.262C512.977,74.603,513.589,71.236,512.67,69.095z"
        />
    </g>
    <g id="eye-left">
        <animateTransform
            attributeName="transform"
            type="rotate"
            from="360 63 92"
            to="0 63 92"
            dur="0.6s"
            repeatCount="indefinite"
        />
        <path d="M59.791,62.057c-1.836,0-3.06,0.918-3.672,2.448c-18.972-0.918-30.6,15.3-30.6,34.272c0,18.36,17.442,37.638,37.026,33.66C94.369,125.705,95.593,61.75,59.791,62.057z M65.911,120.809c-12.24,8.568-26.622-5.202-29.988-16.524c-4.59-15.606,5.202-32.436,20.502-36.108c0.612,0.612,1.224,1.224,2.142,1.53c11.322,3.672,17.136,11.322,18.054,23.256C77.539,102.754,74.173,114.995,65.911,120.809z"
        />
        <path d="M63.157,92.351c-0.306-1.53-0.612-3.06-0.918-4.284c-0.612-3.672-5.202-4.284-7.65-2.142c-1.53,1.53-3.978,3.06-5.202,5.202c-2.142,3.672,0,9.486,3.06,12.24c0.306,1.53,1.224,3.366,2.142,4.896c1.53,2.754,5.814,2.142,6.732-0.918c0.306-0.918,0.612-1.836,0.918-2.754C65.605,101.836,67.441,96.635,63.157,92.351z"
        />
    </g>
    <path d="M432.805,289.415c1.529-3.06,0-7.344-4.284-7.344c-46.206-0.306-92.106,1.836-138.312-0.612c-25.091-1.224-77.724-11.322-97.308,10.404c-0.612,0.612-0.612,1.53-0.612,2.143c-0.306,0.306-0.612,0.918-0.612,1.836c1.224,13.464,7.65,24.479,16.218,34.884c1.53,1.836,5.202,1.836,6.732,0c6.426-7.956,11.322-17.136,16.218-26.01c2.754,9.485,6.12,18.666,12.546,26.315c1.836,2.143,5.202,1.836,7.038,0c8.568-7.649,16.524-18.054,22.338-28.458c1.53,8.874,4.896,16.218,10.404,25.092c1.53,2.448,5.202,3.061,7.039,0.918c6.731-7.344,11.934-15.3,17.136-23.562c4.59,10.098,10.403,19.278,18.359,28.152c2.143,2.447,6.427,1.836,7.956-0.918c3.979-8.263,8.874-15.301,14.688-22.339c3.978,10.71,9.792,19.891,19.584,27.234c2.448,1.836,5.813,1.836,7.649-0.918c5.202-8.568,9.181-16.524,12.547-25.398c6.119,7.65,12.546,14.994,20.808,21.114c2.142,1.53,5.814,0.307,6.732-1.836c6.119-11.628,11.016-23.868,16.829-35.802C433.417,292.475,433.417,290.945,432.805,289.415z M210.649,319.708c-6.12-7.037-10.098-14.688-13.464-24.174c9.792-2.447,19.584-3.672,29.376-4.283C221.359,300.737,216.463,310.223,210.649,319.708z M247.675,319.097c-5.202-8.568-7.344-18.973-10.404-28.765c10.098-0.306,20.502,0.307,30.906,0.919C260.221,299.513,255.325,310.223,247.675,319.097z M277.051,292.781c0-0.306-0.306-0.611-0.612-0.611c8.262,0.611,16.83,1.529,25.092,2.447c-2.448,4.284-4.896,8.568-7.649,12.853C281.947,308.081,276.439,303.185,277.051,292.781z M328.458,320.321c-6.119-7.649-10.098-14.994-13.77-24.174c9.792,1.224,19.89,2.142,29.682,3.06C338.25,305.939,333.049,312.671,328.458,320.321z M371.911,323.075c-6.12,11.628-14.688-17.136-16.523-23.256c8.567,0.306,17.136,0.612,25.397,0.306C379.255,308.387,376.195,316.037,371.911,323.075z M411.385,316.037c-2.143,4.896-14.688-10.71-19.278-16.523c9.792-0.918,19.584-2.448,29.07-4.896C417.811,301.655,414.75,308.999,411.385,316.037z"
    />
</svg>
